<svg class="circle-svg" width="24" height="24" viewBox="0 0 24 24" fill="none" xmlns="http://www.w3.org/2000/svg" aria-hidden="true">
    <path d="
M 11 21 C 12 22 17 20 16 19 C 15 17 15 15 15 13 C 15 11 18 10 20 10 C 20 8 20 7 19 6 C 18 6 16 6 15 7 C 15.3333 5.6667 15.6667 4.3333 16 3 C 15 2 13 2 12 2 C 11 4 11 7 11 10 C 11 12 10 11 9 10 C 8 9 8 6 8 4 C 7 4 5 5 4 6 C 4 8 5 11 6 13 C 7 15 7 15 8 16 C 7 16.6667 6 17.3333 3 17 C 3 19 3 19 5 20 C 8 19 9 18 10 19 C 10.3333 19.6667 10.6667 20.3333 11 21 Z 
    " fill="#af9356" stroke="#0d0d0d" stroke-width="1" stroke-linejoin="round"/>
    
    <path d="
M 4.824 9.938 C 5.715 8.996 6.912 8.537 8.313 8.435 M 6.301 13.453 C 6.81 12.18 8.008 11.033 9.46 10.499 M 7.473 15.364 C 8.543 14.116 10.682 12.791 13.102 12.867 M 15.038 15.287 C 13.484 14.676 11.727 15.542 9.714 16.663 M 10.122 19.108 C 11.879 19.083 13.433 18.522 14.758 17.631 M 5.002 17.147 C 6.097 17.707 6.276 17.962 6.505 19.363 M 11.345 4.283 C 12.389 4.258 13.917 4.156 15.471 5.048 M 11.115 7.977 C 12.669 7.926 14.605 8.563 15.114 10.091 M 17.942 10.295 C 18.324 9.225 17.916 7.951 16.999 7.187
    " stroke="#0d0d0d" stroke-width="1" stroke-linejoin="round"/>
</svg>
