<svg class="circle-svg" width="24" height="24" viewBox="0 0 24 24" fill="none" xmlns="http://www.w3.org/2000/svg" aria-hidden="true">
    <path d="
M 12 12 L 4 12 A 1 1 0 0 1 20 12 Z 
    " fill="#ffffff" stroke="#0d0d0d" stroke-width="1" stroke-linejoin="round"/>
    
    <path d="
M 12 12 L 3 12 C 3 16 6 20 9 20 C 9 20 9 21 9 21 C 11 21 13 21 15 21 C 15 21 15 20 15 20 C 18 20 21 16 21 12 Z
    " fill="#90f8ff" stroke="#0d0d0d" stroke-width="1" stroke-linejoin="round"/>

<path d="
M 6 11 L 7 10 M 8 8 L 9 7 M 11 9 L 10 10 M 12 6 L 11 7 M 14 11 L 15 10 M 15 7 L 14 8 M 18 10 L 17 11
    " stroke="#0d0d0d"  stroke-width="0.85" stroke-linejoin="round"/>

</svg>
