<svg class="circle-svg" width="24" height="24" viewBox="0 0 24 24" fill="none" xmlns="http://www.w3.org/2000/svg" aria-hidden="true">
    <path d="
M 24 24 Z M 3 22 L 3 7 C 3 5 5 3 7 3 L 20 3 C 21 3 22 4 22 5 L 22 21 L 18 21 L 18 22 Z
    " fill="#fced9a" stroke="#0d0d0d" stroke-width="1" stroke-linejoin="round"/>

<path d="
M 19 4 C 18 4 18 6 18 7 L 18 22 M 16 4 C 15 4 14 6 14 7 L 14 22 M 12 4 C 11 4 10 6 10 7 L 10 22 M 8 4 C 7 4 6 6 6 7 L 6 22
    " stroke="#0d0d0d"  stroke-width="0.85" stroke-linejoin="round"/>

</svg>
