<svg class="circle-svg" width="24" height="24" viewBox="0 0 24 24" fill="none" xmlns="http://www.w3.org/2000/svg" aria-hidden="true">
    <path d="
        M 11 21 C 9 21 7 21 7 19 C 7 17 7 13 7 11 C 7 9 9 9 10 8 C 10 7.3333 10 6.6667 10 6 C 9 6 9 4 10 4 C 11 4 12.6667 4 14 4 C 15 4 15 6 14 6 C 14 6.6667 14 7.3333 14 8 C 15 9 17 9 17 11 C 17 12.6667 17 16.3333 17 19 C 17 21 15 21 13 21 Z
    " fill="#ffffff" stroke="#0d0d0d" stroke-width="1" stroke-linecap="round"/>
    
    <path d="
        M 12 10 C 12 13 10 13 10 15 C 10 16 11 17 12 17 C 13 17 14 16 14 15 C 14 13 12 13 12 10 Z
    "  stroke="#0d0d0d" stroke-width="1.25"/>
    
    
</svg>
