<svg class="circle-svg" width="24" height="24" viewBox="0 0 24 24" fill="none" xmlns="http://www.w3.org/2000/svg" aria-hidden="true">
    <path d="
        M 11.635 22.4947 C 9.8224 23.34 8.4935 22.8563 7.6482 21.0437 C 8.6767 16.1506 10.2499 7.6933 10.7947 4.1291 C 12.6073 3.2839 13.9363 3.7676 14.7815 5.5803 C 14.2977 6.9091 12.0625 6.8481 11.6399 5.9418 C 12.0625 6.8481 14.2977 6.9091 14.7815 5.5803 Z
    " fill="#ffffff" stroke="#0d0d0d" stroke-width="1" stroke-linecap="round"/>
    
    <path d="
        M 5.5481 20.624 C 3.6163 20.1063 2.9091 18.8816 3.4268 16.9497 C 7.3598 13.8625 15.4848 6.7221 18.1931 4.3419 C 20.1249 4.8596 20.832 6.0843 20.3144 8.0162 C 19.0897 8.7233 17.4166 7.2397 17.6754 6.2738 C 17.4166 7.2397 19.0897 8.7233 20.3144 8.0162 Z
    "  fill="#ffffff" stroke="#0d0d0d" stroke-width="1.25"/>
    
    
</svg>
