<svg width="19" height="18" viewBox="0 0 19 18" fill="none" xmlns="http://www.w3.org/2000/svg">
<path d="M10.2875 10.125C10.2875 10.7025 9.9575 11.1225 9.5 11.1225C9.0425 11.1225 8.6375 10.7025 8.6375 10.125L8.6225 9.585C8.6225 9.585 8.9075 9 9.4625 9.075C9.92 9.075 10.2875 9.5475 10.2875 10.125ZM16.25 3.75V14.25C16.25 15.0825 15.5825 15.75 14.75 15.75H4.25C3.425 15.75 2.75 15.0825 2.75 14.25V3.75C2.75 2.925 3.425 2.25 4.25 2.25H14.75C15.5825 2.25 16.25 2.925 16.25 3.75ZM11.4125 10.0575C11.375 8.5875 10.3925 8.1525 9.8975 8.1525C9.0575 8.1525 8.645 8.6475 8.645 8.6475C8.645 8.6475 8.6675 7.125 10.5425 7.1475V6.2475C10.5425 6.2475 7.4975 5.955 7.475 9.495C7.4525 12.645 10.0775 12 10.0775 12C10.0775 12 11.4575 11.6025 11.4125 10.0575Z" fill="black"/>
</svg>
