<svg width="18" height="18" viewBox="0 0 18 18" fill="none" xmlns="http://www.w3.org/2000/svg">
<path d="M1.04248 13.77L2.36998 12.45L3.43498 13.5L4.22998 12.7125L3.16498 11.655L4.22998 10.59L6.08248 12.45L6.87748 11.655L5.02498 9.79501L6.08248 8.73751L7.14748 9.79501L7.94248 9.00001L6.87748 7.94251L7.94248 6.87751L9.79498 8.73751L10.59 7.94251L8.73748 6.08251L9.79498 5.02501L10.8525 6.08251L11.655 5.28751L10.59 4.23001L11.655 3.16501L13.5 5.02501L14.3025 4.23001L12.45 2.37001L13.77 1.04251L16.9575 4.23001L4.22998 16.9575L1.04248 13.77Z" fill="black"/>
</svg>
