<svg width="19" height="18" viewBox="0 0 19 18" fill="none" xmlns="http://www.w3.org/2000/svg">
<path d="M5.03781 15.212L2.99181 13.0179L3.54033 12.5064L5.58633 14.7005L5.03781 15.212ZM11.1085 8.5255L12.754 6.991L11.731 5.89397L10.0855 7.42847L8.75123 7.6472L4.08885 11.9949L6.13484 14.189L10.7972 9.84126L11.1085 8.5255ZM14.9851 3.88499C14.9851 3.88499 13.9251 3.84798 12.8281 4.87098L12.2796 5.38247L13.3026 6.4795L13.8511 5.96801C13.8511 5.96801 14.9481 4.94501 14.9851 3.88499ZM1.96882 11.9209L-0.0771781 9.72685L0.471337 9.21535L2.51733 11.4094L1.96882 11.9209ZM8.0395 5.23441L9.68505 3.69991L8.66205 2.60288L7.0165 4.13738L5.68223 4.35611L1.01985 8.70385L3.06585 10.8979L7.72823 6.55017L8.0395 5.23441ZM11.9161 0.593902C11.9161 0.593902 10.8561 0.556886 9.75908 1.57988L9.21057 2.09138L10.2336 3.18841L10.7821 2.67691C10.7821 2.67691 11.8791 1.65392 11.9161 0.593902ZM8.1068 18.5031L6.06081 16.309L6.60932 15.7975L8.65532 17.9916L8.1068 18.5031ZM14.1775 11.8166L15.823 10.2821L14.8 9.18506L13.1545 10.7196L11.8202 10.9383L7.15784 15.286L9.20383 17.4801L13.8662 13.1324L14.1775 11.8166ZM18.0541 7.17609C18.0541 7.17609 16.9941 7.13907 15.8971 8.16207L15.3486 8.67357L16.3715 9.7706L16.9201 9.2591C16.9201 9.2591 18.0171 8.2361 18.0541 7.17609Z" fill="black"/>
</svg>
