<svg width="15" height="14" viewBox="0 0 15 14" fill="none" xmlns="http://www.w3.org/2000/svg">
<path d="M10.25 11.875C8.375 11.875 6.74 10.81 5.93 9.25H10.25L11 7.75H5.435C5.3975 7.5025 5.375 7.255 5.375 7C5.375 6.745 5.3975 6.4975 5.435 6.25H10.25L11 4.75H5.93C6.74 3.19 8.375 2.125 10.25 2.125C11.4575 2.125 12.5675 2.5675 13.4225 3.3025L14.75 1.975C13.5575 0.9025 11.975 0.25 10.25 0.25C7.31 0.25 4.82 2.125 3.875 4.75H1.25L0.5 6.25H3.545C3.5 6.4975 3.5 6.745 3.5 7C3.5 7.255 3.5 7.5025 3.545 7.75H1.25L0.5 9.25H3.875C4.82 11.875 7.31 13.75 10.25 13.75C11.9825 13.75 13.5575 13.0975 14.75 12.025L13.415 10.6975C12.5675 11.4325 11.465 11.875 10.25 11.875Z" fill="black"/>
</svg>
